#!OML:ASF H:\ManfredObstacles\Project 1\Capture day 2\Session 1\male.ASF
:FULLY-SPECIFIED
:DEGREES
337
root 2.80295 14.5826 -0.886237 -150.71 -5.87875 -176.147
lowerback 33.325 7.27999 -2.20607
upperback 15.4152 4.19864 0.951658
thorax -0.381241 0.293532 0.912365
lowerneck -29.841 -3.31104 0.9015
upperneck 23.8231 -7.76137 7.56219
head 13.3006 -2.25945 1.27724
rclavicle -2.66371e-014 5.46658e-015
rhumerus -18.4854 12.2516 -97.0744
rradius 83.0599
rwrist 35.5604
rhand -13.3393 -18.6399
rfingers 7.12502
rthumb 12.7661 -48.2296
lclavicle -2.66371e-014 5.46658e-015
lhumerus -6.95069 -41.6385 85.2037
lradius 64.5849
lwrist -24.6507
lhand -12.8564 30.5681
lfingers 7.12502
lthumb 13.2316 60.1281
rfemur -68.1799 12.5975 22.3637
rtibia 54.0973
rfoot -10.4339 -22.8805
rtoes -8.92899
lfemur -57.7415 0.840977 -12.0938
ltibia 74.1012
lfoot -4.20233 29.6318
ltoes 57.734
338
root 2.80961 14.6018 -1.00049 -150.764 -5.91625 -176.316
lowerback 33.163 6.97037 -2.49729
upperback 15.3921 3.73988 1.1932
thorax -0.373655 0.0375856 1.45663
lowerneck -29.7867 -3.16311 0.262413
upperneck 23.9091 -7.25057 7.52594
head 13.3209 -2.10168 1.47181
rclavicle 2.14687e-014 1.44119e-014
rhumerus -18.0308 13.2651 -96.8602
rradius 81.9094
rwrist 35.5237
rhand -13.0423 -18.6535
rfingers 7.12502
rthumb 13.0524 -48.2251
lclavicle 2.14687e-014 1.44119e-014
lhumerus -7.36851 -40.4214 85.6728
lradius 64.8388
lwrist -24.73
lhand -12.7265 30.556
lfingers 7.12502
lthumb 13.3568 60.1079
rfemur -67.5265 12.3634 22.5274
rtibia 54.1032
rfoot -10.9734 -22.7614
rtoes -8.6675
lfemur -58.0879 0.659492 -12.2161
ltibia 75.2488
lfoot -2.49353 28.6744
ltoes 58.596
339
root 2.81675 14.6238 -1.11696 -150.895 -5.9118 -176.466
lowerback 33.1171 6.71503 -2.76664
upperback 15.3658 3.33936 1.41352
thorax -0.402421 -0.190808 1.94712
lowerneck -29.8098 -3.03184 -0.299343
upperneck 24.0284 -6.79975 7.47659
head 13.3668 -1.96178 1.63715
rclavicle -2.44505e-014 2.96686e-014
rhumerus -17.5495 14.1546 -96.6629
rradius 80.724
rwrist 35.4999
rhand -12.7431 -18.6652
rfingers 7.12502
rthumb 13.3409 -48.2181
lclavicle -2.44505e-014 2.96686e-014
lhumerus -7.77616 -39.3234 86.0742
lradius 65.1987
lwrist -24.7975
lhand -12.5442 30.5172
lfingers 7.12502
lthumb 13.5326 60.0575
rfemur -66.7457 12.1532 22.7236
rtibia 54.0627
rfoot -11.5122 -22.6297
rtoes -8.46651
lfemur -58.3831 0.523129 -12.3502
ltibia 76.4218
lfoot -0.892477 27.6427
ltoes 59.3301
340
root 2.82456 14.6489 -1.23656 -151.141 -5.85161 -176.585
lowerback 33.2155 6.50247 -3.02489
upperback 15.3501 2.96673 1.61181
thorax -0.463972 -0.411203 2.39805
lowerneck -29.9116 -2.89052 -0.805746
upperneck 24.1674 -6.35406 7.40695
head 13.4312 -1.81995 1.78512
rclavicle 6.26172e-015 1.05107e-014
rhumerus -17.0367 15.0047 -96.4914
rradius 79.513
rwrist 35.4921
rhand -12.4274 -18.6734
rfingers 7.12502
rthumb 13.6451 -48.2061
lclavicle 6.26172e-015 1.05107e-014
lhumerus -8.17585 -38.2419 86.4141
lradius 65.647
lwrist -24.8846
lhand -12.3062 30.4438
lfingers 7.12502
lthumb 13.7619 59.9686
rfemur -65.7882 11.9871 22.9614
rtibia 53.96
rfoot -12.048 -22.5003
rtoes -8.31976
lfemur -58.558 0.449012 -12.4959
ltibia 77.5959
lfoot 0.523211 26.6009
ltoes 59.8947
341
root 2.8341 14.6785 -1.36115 -151.552 -5.70362 -176.652
lowerback 33.5087 6.36582 -3.26117
upperback 15.3674 2.64875 1.77732
thorax -0.553771 -0.614956 2.78436
lowerneck -30.1453 -2.74916 -1.24236
upperneck 24.3166 -5.937 7.3353
head 13.523 -1.68127 1.91587
rclavicle -1.2014e-014 1.38202e-014
rhumerus -16.4564 15.7943 -96.3468
rradius 78.2723
rwrist 35.4659
rhand -12.0973 -18.6885
rfingers 7.12502
rthumb 13.9632 -48.1996
lclavicle -1.2014e-014 1.38202e-014
lhumerus -8.51972 -37.2266 86.6402
lradius 66.1491
lwrist -25.0076
lhand -12.0921 30.3195
lfingers 7.12502
lthumb 13.9683 59.8302
rfemur -64.5796 11.9111 23.2559
rtibia 53.7865
rfoot -12.6087 -22.3874
rtoes -8.20503
lfemur -58.5161 0.479909 -12.6435
ltibia 78.7452
lfoot 1.60844 25.6352
ltoes 60.2406
342
root 2.84487 14.7074 -1.48756 -151.992 -5.47928 -176.667
lowerback 33.8651 6.33111 -3.21844
upperback 15.3736 2.54007 1.74203
thorax -0.661889 -0.68659 2.75201
lowerneck -30.4064 -2.70462 -1.30211
upperneck 24.4067 -5.85075 7.32656
head 13.607 -1.64229 1.94134
rclavicle -6.48535e-015 2.9886e-014
rhumerus -15.8557 15.8676 -96.4336
rradius 77.0355
rwrist 35.556
rhand -11.7647 -18.689
rfingers 7.12502
rthumb 14.2837 -48.1777
lclavicle -6.48535e-015 2.9886e-014
lhumerus -8.75859 -36.9321 86.5382
lradius 66.7108
lwrist -25.0675
lhand -11.9362 30.1557
lfingers 7.12502
lthumb 14.1185 59.656
rfemur -63.328 11.9152 23.5812
rtibia 53.6005
rfoot -13.1898 -22.2802
rtoes -8.12403
lfemur -58.4565 0.622858 -12.7875
ltibia 79.8969
lfoot 2.37333 24.817
ltoes 60.6366
343
root 2.85415 14.7343 -1.61435 -152.446 -5.26022 -176.679
lowerback 34.2782 6.34955 -2.89484
upperback 15.3225 2.60509 1.53005
thorax -0.836751 -0.636995 2.33523
lowerneck -30.4974 -2.74497 -0.9761
upperneck 24.3967 -6.07431 7.34943
head 13.6256 -1.70308 1.85004
rclavicle 8.04146e-015 -1.24303e-014
rhumerus -15.3578 15.2371 -96.7386
rradius 75.835
rwrist 35.7276
rhand -11.4299 -18.6912
rfingers 7.12502
rthumb 14.6063 -48.1568
lclavicle 8.04146e-015 -1.24303e-014
lhumerus -9.02506 -37.3366 86.2278
lradius 67.3184
lwrist -25.1118
lhand -11.751 29.9781
lfingers 7.12502
lthumb 14.2969 59.4659
rfemur -62.0785 11.8994 23.9086
rtibia 53.4618
rfoot -13.8414 -22.177
rtoes -8.03438
lfemur -58.4233 0.753718 -12.9489
ltibia 81.0464
lfoot 2.84241 24.2312
ltoes 61.0906
344
root 2.85566 14.7515 -1.73439 -152.704 -5.26854 -176.793
lowerback 34.5235 6.19169 -2.35284
upperback 15.2261 2.57061 1.27569
thorax -0.9827 -0.605192 1.79508
lowerneck -30.5667 -2.80283 -0.604254
upperneck 24.3765 -6.34752 7.37942
head 13.6368 -1.78086 1.74353
rclavicle 3.27498e-014 -1.21259e-014
rhumerus -14.8974 14.4773 -97.0368
rradius 74.6475
rwrist 35.8744
rhand -11.1068 -18.6824
rfingers 7.12502
rthumb 14.9176 -48.1252
lclavicle 3.27498e-014 -1.21259e-014
lhumerus -9.31637 -37.8622 85.9354
lradius 67.9228
lwrist -25.1627
lhand -11.667 29.7841
lfingers 7.12502
lthumb 14.3779 59.2661
rfemur -61.1701 11.6155 24.1575
rtibia 53.4866
rfoot -14.5668 -22.0608
rtoes -7.91415
lfemur -58.807 0.591011 -13.1526
ltibia 82.2454
lfoot 3.13353 23.9236
ltoes 61.6925
345
root 2.849 14.759 -1.84767 -152.743 -5.51864 -177.01
lowerback 34.5791 5.88293 -1.48993
upperback 15.0751 2.51039 0.921688
thorax -1.10048 -0.543034 0.995541
lowerneck -30.6216 -2.92204 -0.0200858
upperneck 24.3475 -6.8048 7.39189
head 13.6426 -1.921 1.55694
rclavicle -3.76697e-014 2.94947e-014
rhumerus -14.4844 13.311 -97.3928
rradius 73.4923
rwrist 36.0267
rhand -10.812 -18.6533
rfingers 7.12502
rthumb 15.2016 -48.0749
lclavicle -3.76697e-014 2.94947e-014
lhumerus -9.59065 -38.7929 85.5678
lradius 68.5398
lwrist -25.1668
lhand -11.5898 29.6195
lfingers 7.12502
lthumb 14.4522 59.0962
rfemur -60.6534 11.0564 24.3208
rtibia 53.7272
rfoot -15.378 -21.9319
rtoes -7.79062
lfemur -59.6441 0.108224 -13.3993
ltibia 83.49
lfoot 3.30697 23.8917
ltoes 62.3234
